<svg width="85" height="87" viewBox="0 0 85 87" fill="none" xmlns="http://www.w3.org/2000/svg">
<path d="M13.6659 41.8922C13.7513 41.4045 13.8014 40.9237 13.9207 40.4579C14.262 39.1713 14.4745 37.8534 14.5551 36.524C14.57 36.2208 14.7625 35.9284 14.852 35.6238C15.0038 35.1034 15.1352 34.5775 15.2816 34.0557C15.4728 33.3727 15.6625 32.6898 15.8672 32.0068C16.0231 31.4877 16.2075 30.9769 16.3647 30.4578C16.8213 28.9552 17.4376 27.5066 18.2028 26.1373C18.482 25.6319 18.8602 25.1811 19.1516 24.6826C19.8077 23.5415 20.499 22.4242 21.2255 21.3305C21.4695 20.9631 21.7677 20.6325 22.0389 20.2828C22.7437 19.369 23.496 18.4852 24.1318 17.525C24.5384 16.9185 25.0982 16.5032 25.5618 15.9774C26.053 15.402 26.5917 14.8696 27.1722 14.386C28.6727 13.1785 30.0404 11.7484 31.9164 11.1282C32.9859 10.7758 34.0283 10.1857 35.2103 10.3824C36.17 10.5422 37.1487 10.3824 38.1071 10.7403C38.7804 11.0028 39.4181 11.3503 40.0048 11.7743C41.4425 12.7317 42.6152 14.0417 43.4125 15.5812C43.6836 16.1057 43.9724 16.618 44.2801 17.1207C44.6786 17.7708 44.7599 18.4798 44.7531 19.2229C44.745 20.179 44.8209 21.1352 44.7667 22.0914C44.7239 22.8547 44.6021 23.6114 44.4034 24.3493C44.0767 25.5431 43.6714 26.7151 43.2729 27.8885C42.8893 29.0154 42.4596 30.1286 42.0692 31.2528C41.687 32.3374 41.2762 33.3973 40.6852 34.3945C39.6111 36.2333 38.3898 37.9807 37.0335 39.6193C36.3652 40.4197 35.5546 41.1027 34.7942 41.8239C34.2818 42.3102 33.7654 42.7978 33.2137 43.2363C32.6023 43.7212 31.9476 44.1515 31.316 44.6022C31.1882 44.6738 31.0679 44.758 30.9568 44.8536C29.8046 46.0829 28.3813 46.8205 26.7872 47.2809C25.6472 47.6087 24.5384 48.0472 23.4188 48.446C22.7217 48.6752 22.0045 48.8371 21.2771 48.9296C20.5641 49.0389 20.3485 49.297 20.3282 50.0005C20.2957 50.9116 20.2184 51.8227 20.232 52.7324C20.2482 53.8975 20.2455 55.0654 20.5708 56.2128C20.8514 57.2018 21.0168 58.2235 21.2405 59.2302C21.2778 59.3945 21.3347 59.5537 21.4099 59.7042C21.5942 60.0785 21.7894 60.4459 21.9901 60.812C22.2937 61.3693 22.5323 61.9785 22.9389 62.4511C23.21 62.7844 23.7048 62.9415 24.106 63.1669C24.5316 63.4059 24.96 63.6422 25.3978 63.8581C25.613 63.9652 25.8407 64.0446 26.0756 64.0944C27.1789 64.3143 28.2783 64.5656 29.3911 64.7159C30.2423 64.8204 31.1 64.8601 31.9571 64.8347C32.788 64.8183 33.6217 64.7213 34.4485 64.6216C35.1615 64.5356 35.3974 64.2665 35.4706 63.5289C35.5926 62.3856 35.6915 61.2395 35.8312 60.099C35.9166 59.3955 36.0359 58.6948 36.1795 58.0009C36.4506 56.68 36.6865 55.3455 37.0552 54.0505C37.5256 52.4046 38.0827 50.7818 38.6588 49.17C39.079 47.9953 39.5995 46.8574 40.0617 45.6964C40.5077 44.5777 41.203 43.6051 41.8157 42.5834C42.5016 41.4428 43.1875 40.2981 43.7894 39.1111C44.5661 37.5799 45.641 36.3205 46.8542 35.1266C47.6837 34.3071 48.6678 33.7238 49.5367 32.9739C49.858 32.7007 50.3161 32.5641 50.7309 32.4193C51.8831 32.0246 53.0502 31.6899 54.2363 31.3962C55.17 31.1853 56.1323 31.1345 57.0828 31.246C58.0826 31.3594 59.0501 31.6714 59.9294 32.1639C61.0423 32.7594 61.9911 33.5708 62.9495 34.3494C63.6083 34.8876 64.0122 35.7154 64.2928 36.5513C64.6154 37.5198 64.9177 38.4937 65.1522 39.4881C65.2042 39.7034 65.2329 39.9237 65.2376 40.1451C65.2633 41.9058 65.3596 43.6652 65.1644 45.4245C65.0173 46.6907 64.721 47.9348 64.282 49.1304C63.9526 50.0483 63.3846 50.8105 62.9522 51.6587C62.8269 51.9418 62.7178 52.2318 62.6255 52.5275C62.593 52.6163 62.5821 52.7542 62.5211 52.7829C61.8325 53.1094 61.7078 53.8566 61.3608 54.4221C60.7486 55.4272 60.0735 56.3922 59.3398 57.3111C58.6024 58.2217 57.8758 59.141 57.1601 60.0689C56.6622 60.7176 56.0882 61.3033 55.4508 61.8132C54.5209 62.5549 53.5273 63.2256 52.6693 64.0438C52.0065 64.6749 51.1972 65.0751 50.5249 65.683C49.8696 66.256 49.1651 66.7694 48.4198 67.2169C47.6065 67.7182 46.7389 68.1253 45.8985 68.5829C45.4919 68.8042 45.1056 69.061 44.6962 69.2782C44.154 69.5636 43.6118 69.8519 43.0466 70.0868C42.7361 70.2166 42.6277 70.4133 42.6629 70.7111C42.7985 71.8038 43.0452 72.8228 43.7202 73.7421C44.3413 74.6188 45.0206 75.4522 45.7535 76.2363C46.7796 77.299 47.9426 78.1951 49.37 78.6786C49.8388 78.8252 50.2994 78.9971 50.7499 79.1936C51.9902 79.7659 53.3254 79.7782 54.6362 79.852C56.1706 79.9394 57.6467 79.5706 59.131 79.2182C60.2873 78.945 61.3242 78.3986 62.4195 77.9888C64.2548 77.3059 65.8367 76.1926 67.4349 75.1108C68.5423 74.3568 69.5047 73.3883 70.5525 72.5387C71.9907 71.3694 73.128 69.9133 74.268 68.4791C75.1136 67.4177 75.68 66.1587 75.9149 64.8183C75.9976 64.3525 76.2769 63.9223 76.4571 63.4701C76.5507 63.2256 76.613 62.9688 76.6862 62.7175C77.0332 61.5359 77.3857 60.3558 77.7205 59.166C77.8398 58.7439 77.913 58.3068 78.0133 57.8779C78.0413 57.7384 78.0868 57.6029 78.1488 57.475C78.2844 57.2209 78.4538 56.9887 78.5772 56.7319C78.8157 56.2279 79.0963 56.0489 79.6887 56.0803C80.0032 56.0954 80.3217 56.0735 80.6375 56.1159C81.1884 56.1779 81.7348 56.2746 82.2736 56.4054C82.7448 56.5363 83.23 56.6088 83.7186 56.6213C83.903 56.6213 84.1483 56.6213 84.2608 56.7346C84.5143 56.9887 84.841 57.281 84.8938 57.6075C85.1206 58.9065 84.9825 60.2435 84.4953 61.4677C84.2402 62.0623 84.0506 62.6835 83.9301 63.3199C83.7674 64.3321 83.3702 65.2636 83.091 66.2348C82.6965 67.6058 82.1561 68.9298 81.4793 70.1838C81.0726 70.9501 80.7853 71.7861 80.22 72.4759C79.7253 73.0796 79.2793 73.7243 78.7764 74.3213C78.1705 75.0398 77.5388 75.7378 76.8977 76.4248C75.9488 77.4356 74.9769 78.415 73.78 79.1567C73.555 79.2933 73.4316 79.5938 73.2188 79.7687C72.6387 80.2454 72.0572 80.7248 71.4363 81.1469C70.4075 81.8408 69.3624 82.5129 68.2943 83.1439C67.5939 83.5521 66.8697 83.917 66.1254 84.2367C65.1969 84.6465 64.2413 84.9921 63.3006 85.3745C61.9852 85.8975 60.6273 86.3047 59.2422 86.5916C57.6238 86.9447 55.9647 87.0698 54.3122 86.9632C53.2644 86.8949 52.2098 86.9468 51.1742 86.7159C50.7675 86.6271 50.3609 86.552 49.9746 86.4277C48.8427 86.0643 47.7149 85.6928 46.5858 85.3008C45.2994 84.8527 44.1947 84.0714 43.0682 83.3242C41.5175 82.2998 40.284 80.9407 39.1088 79.5228C38.0244 78.2183 37.0945 76.8128 36.4574 75.2324C36.1118 74.3786 35.8 73.5071 35.72 72.5728C35.6712 72.0046 35.4842 71.715 34.7712 71.7997C32.6159 72.0524 30.443 72.1385 28.2878 71.8421C27.0095 71.6658 25.7638 71.2643 24.4923 71.0594C23.4906 70.8827 22.5273 70.5309 21.6458 70.0199C21.0954 69.7153 20.5749 69.3369 19.9988 69.102C18.5078 68.4982 17.5399 67.359 16.7036 66.0627C15.8636 64.7372 15.1579 63.3301 14.5971 61.8624C14.4046 61.415 14.2785 60.9413 14.223 60.4568C14.1417 59.4119 13.7838 58.4489 13.5059 57.4518C13.1305 56.1118 13.0789 54.7198 13.0911 53.3375C13.1006 52.2775 13.1657 51.2175 13.1765 50.1589C13.186 49.2683 12.9149 49.0006 11.9051 48.9296C10.8681 48.8599 9.85418 48.67 8.95683 48.1496C7.88733 47.5308 6.80158 46.9298 5.91372 46.0256C5.38371 45.4792 4.71002 45.0831 4.18273 44.5394C3.50577 43.8267 2.86818 43.077 2.27282 42.2938C2.05594 42.0124 1.97054 41.6245 1.83092 41.283C1.57202 40.6492 1.28872 40.0208 1.06777 39.3706C0.93222 38.9909 0.948486 38.5511 0.796669 38.1877C0.286997 36.9775 0.334434 35.699 0.265303 34.4327C0.211083 33.4315 0.179906 32.4289 0.129752 31.4276C0.103997 30.9687 0.0402964 30.5111 0.00234216 30.0521C-0.00648057 29.9792 0.0097825 29.9054 0.0484248 29.8431C0.388658 29.4101 0.347998 28.887 0.291066 28.4143C0.197536 27.6467 0.438809 26.9118 0.452364 26.1851C0.472697 25.0828 0.681458 24.0214 0.821075 22.9437C0.933131 22.075 1.05963 21.2099 1.20061 20.3484C1.27991 19.8022 1.38943 19.2609 1.52865 18.727C1.75645 17.8528 2.02789 16.9907 2.34195 16.144C2.81096 14.9392 3.36672 13.7686 3.86419 12.5748C4.35217 11.4041 4.76289 10.1994 5.30238 9.05471C5.7222 8.19555 6.21234 7.37313 6.76769 6.59599C7.581 5.4281 8.43768 4.29027 9.31876 3.17292C9.84046 2.48553 10.421 1.84563 11.0538 1.26058C11.5784 0.796161 12.2236 0.461499 12.8404 0.113181C13.1264 -0.0480009 13.4598 -0.0985411 13.5656 0.386372C13.5872 0.486086 13.716 0.572145 13.8096 0.645906C14.2447 0.994224 14.7679 1.236 15.0742 1.73867C15.1559 1.83182 15.2629 1.89878 15.3819 1.93126C16.1085 2.21948 16.484 2.85874 16.8635 3.47479C16.9128 3.57235 16.9416 3.67904 16.9484 3.78828C16.9552 3.89752 16.9396 4.00699 16.9028 4.10996C16.7102 4.6415 16.4616 5.15072 16.1614 5.6289C15.5121 6.58506 14.7964 7.50299 14.1173 8.4414C13.7011 9.01646 13.304 9.60382 12.8973 10.183C12.1206 11.2757 11.6773 12.5324 11.1961 13.7672C10.8532 14.6374 10.4262 15.4733 10.0724 16.3393C9.5126 17.7053 8.91617 19.0644 8.46885 20.47C8.18826 21.3496 8.14082 22.3072 8.01204 23.2319C7.86836 24.2591 7.74095 25.289 7.62708 26.319C7.56337 26.9296 7.61759 27.5579 7.50373 28.1562C7.32344 29.1123 7.32887 30.0685 7.32209 31.0247C7.31396 32.0546 7.40749 33.0873 7.4712 34.1172C7.50915 34.7305 7.5105 35.3561 7.63928 35.9503C7.81821 36.7699 8.09744 37.5553 8.34685 38.3503C8.39958 38.4876 8.48147 38.6116 8.58678 38.7136C8.93921 39.092 9.2808 39.484 9.67119 39.8241C10.2961 40.3705 10.9359 40.9087 11.5987 41.4127C12.1667 41.884 12.9027 41.813 13.6659 41.8922ZM21.1375 41.5097C21.7773 41.3335 22.3574 41.1805 22.9457 41.0098C24.3392 40.6 25.6974 40.0796 26.836 39.1644C28.0044 38.226 29.0862 37.1783 30.2112 36.1825C30.523 35.9093 30.8388 35.6361 31.1723 35.3862C31.6918 35.0145 32.127 34.5359 32.4492 33.982C32.6215 33.6589 32.8163 33.3485 33.032 33.0531C33.8277 32.015 34.5638 30.9386 35.0111 29.6997C35.8244 27.4554 36.5672 25.1921 37.3873 22.9478C37.756 21.9397 37.7086 20.9207 37.6584 19.8894C37.6337 19.7467 37.5741 19.6124 37.4849 19.4988C37.2328 19.1067 36.9793 18.7134 36.7041 18.3364C36.2826 17.7599 35.5126 17.4362 34.82 17.6684C34.4948 17.7787 34.1912 17.9451 33.9226 18.1601C32.9738 18.9264 32.0032 19.6804 31.1126 20.515C30.174 21.4172 29.3309 22.4152 28.5968 23.4928C27.8811 24.5132 27.1356 25.5131 26.428 26.5348C26.0674 27.0525 25.7299 27.5879 25.41 28.133C24.9261 28.9594 24.4612 29.8008 23.9962 30.6354C23.4011 31.6913 23.1002 32.866 22.7153 33.9984C22.3208 35.1635 22.066 36.3765 21.7664 37.5717C21.6444 38.0429 21.5468 38.5278 21.4451 38.9977C21.2581 39.8023 21.1131 40.6109 21.1375 41.5097ZM42.8568 61.9649C44.1987 61.5551 44.1974 61.5551 45.0419 60.8161C45.2086 60.6713 45.3983 60.5538 45.5746 60.4186C46.6102 59.6318 47.6593 58.8628 48.6746 58.05C49.6113 57.3001 50.5371 56.5325 51.4182 55.7184C51.917 55.2567 52.3264 54.6925 52.7561 54.1584C53.2779 53.5096 53.8269 52.8758 54.2783 52.1792C55.1485 50.8405 55.9889 49.4814 56.7806 48.0936C57.3011 47.1812 57.8785 46.2687 57.9897 45.1814C58.0642 44.4465 58.1252 43.7062 58.1252 42.9686C58.1334 41.858 58.1063 40.7448 57.7755 39.6684C57.7199 39.4854 57.6589 39.2586 57.5207 39.1535C56.748 38.5852 55.8846 38.2123 54.9303 38.5579C53.9503 38.9144 52.9363 39.2409 52.161 40.0085C51.4981 40.6587 50.7594 41.2379 50.3243 42.0998C49.7943 43.1502 49.2399 44.1843 48.6828 45.2237C48.6071 45.3796 48.5114 45.5247 48.3981 45.6554C47.658 46.4408 47.2269 47.412 46.785 48.3736C46.457 49.0867 46.2266 49.8502 45.8565 50.5387C45.0798 51.9852 44.6813 53.5738 44.1798 55.1105C43.6484 56.736 43.3664 58.4475 43.0208 60.1304C42.9042 60.6973 42.9137 61.2901 42.8568 61.9649Z" fill="#058855"/>
</svg>
