<svg width="45" height="50" viewBox="0 0 45 50" fill="none" xmlns="http://www.w3.org/2000/svg">
<path d="M0.122659 46.9476C0.0956622 46.661 0.0841894 46.3731 0.0882804 46.0853C0.290892 42.771 0.498259 39.4568 0.710373 36.1425C0.886769 33.363 1.0658 30.584 1.24749 27.8054C1.46786 24.333 1.68821 20.8608 1.90855 17.389C2.06721 14.8187 2.2099 12.2474 2.37566 9.67757C2.53463 7.17263 2.71585 4.66822 2.88725 2.16407C2.91389 1.7442 2.93527 1.32311 2.98056 0.904425C3.00985 0.705249 3.05212 0.508211 3.10709 0.314578C3.41752 0.252832 3.66393 0.245202 3.87466 0.153858C4.21998 0.00571755 4.49001 0.0890867 4.77154 0.300279C5.54846 0.876755 6.33816 1.43435 7.11696 2.00916C8.11534 2.74647 9.10688 3.4932 10.1033 4.23397C11.3296 5.14715 12.5567 6.0574 13.7845 6.96471C15.0955 7.92951 16.4143 8.88228 17.7253 9.84618C18.6345 10.5143 19.534 11.1952 20.4422 11.865C20.7273 12.0756 21.0328 12.2605 21.3161 12.4718C22.2705 13.1858 23.2133 13.9142 24.1708 14.6221C25.2183 15.3992 26.2814 16.1558 27.329 16.933C28.7754 18.0093 30.2151 19.0941 31.6635 20.167C32.9842 21.1458 34.3166 22.1093 35.6373 23.09C36.5299 23.7525 37.405 24.4391 38.2976 25.1016C39.2413 25.8024 40.1967 26.4868 41.1462 27.1799C41.4587 27.4083 41.7818 27.6239 42.0732 27.8769C42.2962 28.07 42.5613 28.273 42.3892 28.6532C42.3768 28.699 42.3743 28.7469 42.3819 28.7937C42.3896 28.8405 42.4072 28.8852 42.4335 28.9245C42.6198 29.1897 42.4949 29.3607 42.2684 29.4761C41.8271 29.7041 41.3793 29.9227 40.9247 30.1221C39.6416 30.6839 38.3565 31.2402 37.0694 31.791C35.6184 32.4149 34.1638 33.0252 32.7129 33.6483C31.2052 34.2954 29.7021 34.9546 28.1928 35.599C26.5636 36.2939 24.9273 36.9732 23.298 37.6691C21.3427 38.5036 19.3937 39.3519 17.4401 40.1883C16.1075 40.758 14.7687 41.3129 13.4369 41.8845C11.9126 42.5396 10.3953 43.213 8.87208 43.8655C8.13288 44.1828 7.38213 44.4717 6.64288 44.7899C5.46024 45.2993 4.28362 45.8261 3.10254 46.3392C2.67469 46.5242 2.23998 46.6908 1.80987 46.8694C1.73346 46.8961 1.66281 46.9371 1.60171 46.9904C1.34424 47.2426 1.0542 47.1937 0.748209 47.1153C0.561728 47.0631 0.380289 47.0158 0.122659 46.9476Z" fill="#E8A8CA"/>
</svg>
