<svg width="67" height="67" viewBox="0 0 67 67" fill="none" xmlns="http://www.w3.org/2000/svg">
<path d="M2.07111 36.0597C2.23451 35.8227 2.41063 35.5947 2.59868 35.3768C4.8829 32.9668 7.17076 30.56 9.46225 28.1562C11.3829 26.1393 13.3052 24.1244 15.2293 22.1116C17.6287 19.5919 20.028 17.0724 22.427 14.5531C24.1997 12.6851 25.9607 10.8061 27.7385 8.94305C29.4694 7.12538 31.217 5.32239 32.957 3.5133C33.2471 3.20863 33.534 2.89963 33.8376 2.60784C33.988 2.474 34.147 2.35015 34.3135 2.23706C34.5911 2.38914 34.7848 2.54157 35.005 2.60693C35.3648 2.71522 35.5182 2.95257 35.5983 3.29527C35.8234 4.23614 36.0705 5.17076 36.2981 6.11156C36.5897 7.31796 36.8699 8.52718 37.1577 9.73494C37.511 11.2225 37.8667 12.7084 38.2249 14.1925C38.6099 15.774 39.0087 17.3514 39.3942 18.9323C39.6619 20.0283 39.9139 21.128 40.1797 22.2247C40.263 22.5693 40.3783 22.9072 40.4596 23.2512C40.7325 24.4114 40.9872 25.5753 41.2663 26.7328C41.5699 28.0013 41.8986 29.2641 42.2023 30.5326C42.6194 32.2866 43.0259 34.0428 43.4469 35.7955C43.8303 37.3941 44.2326 38.9884 44.6148 40.5882C44.8733 41.6694 45.103 42.7577 45.3615 43.8389C45.6346 44.9821 45.9272 46.1204 46.2097 47.2615C46.3025 47.6373 46.4116 48.0101 46.4724 48.3911C46.5192 48.6824 46.592 49.0082 46.2159 49.1891C46.177 49.2162 46.1443 49.2513 46.1201 49.2921C46.0959 49.3329 46.0807 49.3784 46.0756 49.4255C46.0481 49.7484 45.8425 49.7992 45.5947 49.7422C45.1101 49.6335 44.6265 49.5134 44.15 49.3741C42.8057 48.9805 41.4635 48.5814 40.1232 48.1767C38.6104 47.7228 37.1036 47.2562 35.5914 46.8017C34.0201 46.3292 32.4448 45.8688 30.8741 45.3932C29.179 44.8793 27.4886 44.3488 25.7929 43.8355C23.7584 43.2191 21.7197 42.6173 19.6852 42.0033C18.2979 41.5839 16.9154 41.1493 15.5275 40.7318C13.9385 40.2548 12.343 39.7962 10.7565 39.3178C9.98615 39.0862 9.22521 38.8254 8.45421 38.5944C7.22061 38.2251 5.98046 37.8731 4.74569 37.5076C4.29896 37.3745 3.85877 37.223 3.41443 37.0836C3.33873 37.0549 3.25819 37.041 3.17715 37.0426C2.81784 37.0705 2.62692 36.8468 2.44282 36.5901C2.33338 36.4303 2.22471 36.2775 2.07111 36.0597Z" fill="#DF4E20"/>
</svg>
