<svg width="214" height="28" viewBox="0 0 214 28" fill="none" xmlns="http://www.w3.org/2000/svg">
<g clip-path="url(#clip0_40_14)">
<path fill-rule="evenodd" clip-rule="evenodd" d="M26.9491 23.437C27.4071 23.437 27.5598 22.8263 27.1018 22.6736C23.132 20.9177 14.0472 16.7952 10.8408 14.1995C6.03117 10.2297 4.1226 5.87817 4.80969 0.534179C4.88603 0.0761225 4.19894 -0.076563 4.04626 0.305151C0.839863 7.32869 -0.534307 14.3522 0.22912 18.7038C0.687177 21.2994 2.97746 23.1316 5.64946 23.1316L26.9491 23.437Z" fill="#FFFAF2"/>
<path fill-rule="evenodd" clip-rule="evenodd" d="M19.6966 4.27496C19.2385 4.27496 19.0858 4.88571 19.5439 5.03839C23.5137 6.79427 32.5985 10.9168 35.8049 13.5124C40.6908 17.4823 42.523 21.8338 41.836 27.1014C41.7596 27.5595 42.4467 27.7122 42.5994 27.3305C45.8058 20.3069 47.18 13.2834 46.4165 8.93187C45.8821 6.41256 43.5918 4.58033 40.9198 4.58033L19.6966 4.27496Z" fill="#FFFAF2"/>
</g>
<path d="M66.9839 1.32513C73.2356 1.32513 75.7641 3.99452 75.7641 9.75415C75.7641 15.5142 73.2356 18.1839 66.9839 18.1839H65.2979C64.6306 18.1839 64.2444 18.5351 64.2444 19.2374V24.8564C64.2444 25.5595 63.8929 25.9106 63.1906 25.9106H59.2568C58.5896 25.9106 58.2034 25.5244 58.2034 24.8564V2.41399C58.2034 1.71132 58.5545 1.36018 59.2568 1.32513H66.9839ZM67.1945 12.1425C68.8802 12.1425 69.7234 11.9319 69.7234 9.75415C69.7234 7.57681 68.8802 7.36582 67.1945 7.36582H65.2979C64.6306 7.36582 64.2444 7.71734 64.2444 8.41964V11.089C64.2444 11.7563 64.6306 12.1425 65.2979 12.1425H67.1945V12.1425Z" fill="#FFFAF2"/>
<path d="M95.7833 24.014C96.275 24.9273 95.7132 25.9106 94.6244 25.9106H90.6205C90.2693 25.9106 89.9532 25.7347 89.8127 25.4186L86.1599 18.3591C86.0899 18.254 85.9844 18.1839 85.8793 18.1839H84.4743C83.8421 18.1839 83.3854 18.6402 83.3854 19.2724V24.8214C83.3854 25.4536 82.9288 25.9106 82.2966 25.9106H78.3631C77.7309 25.9106 77.2743 25.4536 77.2743 24.8214V2.41399C77.2743 1.78178 77.7309 1.32513 78.3631 1.32513H86.0548C92.3065 1.32513 94.835 3.99452 94.835 9.75415C94.835 13.0207 94.0272 15.3039 92.166 16.6384C92.0255 16.7435 91.9904 16.9195 92.0605 17.0947L95.7833 24.014V24.014ZM84.4743 7.36582C83.8421 7.36582 83.3854 7.82246 83.3854 8.45468V11.0536C83.3854 11.6858 83.8421 12.1425 84.4743 12.1425H86.2654C87.9511 12.1425 88.7943 11.9319 88.7943 9.75415C88.7943 7.57681 87.9511 7.36582 86.2654 7.36582H84.4743V7.36582Z" fill="#FFFAF2"/>
<path d="M113.308 1.32526C114.01 1.32526 114.361 1.6764 114.361 2.37869V6.31251C114.361 6.97976 114.01 7.36595 113.308 7.36595H104.808C104.141 7.36595 103.755 7.71747 103.755 8.41976V9.54365C103.755 10.2109 104.141 10.5975 104.808 10.5975H110.252C110.955 10.5975 111.306 10.9486 111.306 11.6509V15.5851C111.306 16.2523 110.955 16.6385 110.252 16.6385H104.808C104.141 16.6385 103.755 16.9897 103.755 17.692V18.8162C103.755 19.4835 104.141 19.8697 104.808 19.8697H113.308C114.01 19.8697 114.361 20.2208 114.361 20.9231V24.8566C114.361 25.5596 114.01 25.9107 113.308 25.9107H98.5568C97.8891 25.9107 97.503 25.5246 97.503 24.8566V2.37869C97.503 1.6764 97.8891 1.32526 98.5568 1.32526H113.308V1.32526Z" fill="#FFFAF2"/>
<path d="M129.258 10.0355C128.555 10.176 128.204 9.85989 128.099 9.1576C127.853 7.7176 126.694 6.80432 125.043 6.80432C123.673 6.80432 122.83 7.61211 122.971 8.41989C123.463 11.1594 134.561 11.0893 134.561 19.1675C134.561 20.221 133.367 26.4372 125.043 26.4372C117.667 26.4372 116.087 21.5905 115.911 18.8514C115.876 18.2192 116.192 17.833 116.825 17.6921L120.794 16.8139C121.496 16.6737 121.882 16.9898 121.952 17.7271C122.093 19.4135 123.392 20.3969 125.043 20.3969C126.764 20.3969 128.029 19.3778 127.818 18.4294C127.15 15.4443 116.579 16.1116 116.579 8.0337C116.544 6.97989 117.176 0.763245 125.043 0.763245C132.278 0.763245 133.964 5.46981 134.175 7.99829C134.21 8.6305 133.894 9.01706 133.261 9.15759L129.258 10.0355L129.258 10.0355Z" fill="#FFFAF2"/>
<path d="M151.913 1.32526C152.615 1.32526 152.967 1.6764 152.967 2.37869V6.31251C152.967 6.97976 152.615 7.36595 151.913 7.36595H143.414C142.747 7.36595 142.36 7.71747 142.36 8.41976V9.54365C142.36 10.2109 142.747 10.5975 143.414 10.5975H148.858C149.56 10.5975 149.911 10.9486 149.911 11.6509V15.5851C149.911 16.2523 149.56 16.6385 148.858 16.6385H143.414C142.747 16.6385 142.36 16.9897 142.36 17.692V18.8162C142.36 19.4835 142.747 19.8697 143.414 19.8697H151.913C152.615 19.8697 152.967 20.2208 152.967 20.9231V24.8566C152.967 25.5596 152.615 25.9107 151.913 25.9107H137.162C136.494 25.9107 136.108 25.5246 136.108 24.8566V2.37869C136.108 1.6764 136.494 1.32526 137.162 1.32526H151.913V1.32526Z" fill="#FFFAF2"/>
<path d="M160.738 1.32526C161.336 1.32526 161.722 1.57091 161.968 2.13305L166.745 13.8286C166.885 14.1447 167.166 14.0747 167.166 13.7231V2.37869C167.166 1.6764 167.552 1.32526 168.219 1.32526H172.153C172.856 1.32526 173.207 1.6764 173.207 2.37869V24.8566C173.207 25.5246 172.856 25.9108 172.153 25.9108H166.99C166.393 25.9108 166.006 25.6647 165.76 25.1026L160.985 13.407C160.844 13.0909 160.563 13.1614 160.563 13.5125V24.8566C160.563 25.5246 160.211 25.9108 159.509 25.9108H155.576C154.908 25.9108 154.521 25.5246 154.521 24.8566V2.37869C154.521 1.6764 154.908 1.32526 155.576 1.32526H160.738V1.32526Z" fill="#FFFAF2"/>
<path d="M181.758 8.41977C181.758 7.71747 181.407 7.36595 180.704 7.36595H175.787C175.12 7.36595 174.733 6.97977 174.733 6.31252V2.37869C174.733 1.6764 175.12 1.32526 175.787 1.32526H193.769C194.472 1.32526 194.823 1.6764 194.823 2.37869V6.31251C194.823 6.97976 194.472 7.36595 193.769 7.36595H188.852C188.185 7.36595 187.799 7.71747 187.799 8.41976V24.8566C187.799 25.5246 187.448 25.9108 186.745 25.9108H182.811C182.144 25.9108 181.758 25.5246 181.758 24.8566V8.41977H181.758Z" fill="#FFFAF2"/>
<path d="M208.552 10.0354C207.849 10.1759 207.498 9.85983 207.393 9.15754C207.146 7.71754 205.988 6.80425 204.337 6.80425C202.967 6.80425 202.125 7.61204 202.265 8.41983C202.757 11.1593 213.855 11.0892 213.855 19.1675C213.855 20.2209 212.66 26.4372 204.337 26.4372C196.962 26.4372 195.381 21.5904 195.205 18.8513C195.17 18.2191 195.486 17.833 196.119 17.692L200.087 16.8138C200.789 16.6736 201.176 16.9898 201.246 17.7271C201.386 19.4135 202.686 20.3968 204.337 20.3968C206.058 20.3968 207.322 19.3777 207.111 18.4294C206.444 15.4443 195.873 16.1115 195.873 8.03364C195.837 6.97983 196.47 0.763184 204.337 0.763184C211.572 0.763184 213.258 5.46974 213.469 7.99822C213.504 8.63043 213.188 9.017 212.555 9.15753L208.552 10.0354V10.0354Z" fill="#FFFAF2"/>
<defs>
<clipPath id="clip0_40_14">
<rect width="46.5691" height="27.7124" fill="white"/>
</clipPath>
</defs>
</svg>
