<?xml version="1.0" encoding="UTF-8"?><svg xmlns="http://www.w3.org/2000/svg" viewBox="0 0 274.85 35.97"><defs><style>.d{fill:#FFFAF2;}</style></defs><g id="a"/><g id="b"><g id="c"><g><path class="d" d="M35.47,29.58c-5.2-2.3-17.1-7.7-21.3-11.1C7.87,13.28,5.37,7.58,6.27,.58c.1-.6-.8-.8-1-.3C1.07,9.48-.73,18.68,.27,24.38c.6,3.4,3.6,5.8,7.1,5.8l27.9,.4c.6,0,.8-.8,.2-1Z"/><path class="d" d="M53.57,5.88l-27.8-.4c-.6,0-.8,.8-.2,1,5.2,2.3,17.1,7.7,21.3,11.1,6.4,5.2,8.8,10.9,7.9,17.8-.1,.6,.8,.8,1,.3,4.2-9.2,6-18.4,5-24.1-.7-3.3-3.7-5.7-7.2-5.7Z"/><path class="d" d="M82.47,1.62h-10.12c-.92,.05-1.38,.51-1.38,1.43v29.4c0,.88,.51,1.38,1.38,1.38h5.15c.92,0,1.38-.46,1.38-1.38v-7.36c0-.92,.51-1.38,1.38-1.38h2.21c8.19,0,11.5-3.5,11.5-11.04s-3.31-11.04-11.5-11.04Zm.28,14.17h-2.48c-.87,0-1.38-.51-1.38-1.38v-3.5c0-.92,.51-1.38,1.38-1.38h2.48c2.21,0,3.31,.28,3.31,3.13s-1.1,3.13-3.31,3.13Z"/><path class="d" d="M120.2,31.34l-4.88-9.06c-.09-.23-.05-.46,.14-.6,2.44-1.75,3.5-4.74,3.5-9.02,0-7.54-3.31-11.04-11.5-11.04h-10.07c-.83,0-1.43,.6-1.43,1.43v29.35c0,.83,.6,1.43,1.43,1.43h5.15c.83,0,1.43-.6,1.43-1.43v-7.27c0-.83,.6-1.43,1.43-1.43h1.84c.14,0,.28,.09,.37,.23l4.78,9.25c.18,.41,.6,.64,1.06,.64h5.24c1.43,0,2.16-1.29,1.52-2.48h0Zm-12.47-15.55h-2.35c-.83,0-1.43-.6-1.43-1.43v-3.4c0-.83,.6-1.43,1.43-1.43h2.35c2.21,0,3.31,.28,3.31,3.13s-1.11,3.13-3.31,3.13Z"/><path class="d" d="M143.15,1.62h-19.32c-.87,0-1.38,.46-1.38,1.38v29.44c0,.88,.51,1.38,1.38,1.38h19.32c.92,0,1.38-.46,1.38-1.38v-5.15c0-.92-.46-1.38-1.38-1.38h-11.13c-.87,0-1.38-.51-1.38-1.38v-1.47c0-.92,.51-1.38,1.38-1.38h7.13c.92,0,1.38-.51,1.38-1.38v-5.15c0-.92-.46-1.38-1.38-1.38h-7.13c-.87,0-1.38-.51-1.38-1.38v-1.47c0-.92,.51-1.38,1.38-1.38h11.13c.92,0,1.38-.51,1.38-1.38V3c0-.92-.46-1.38-1.38-1.38Z"/><path class="d" d="M155.81,10.91c-.18-1.06,.92-2.12,2.71-2.12,2.16,0,3.68,1.2,4,3.08,.14,.92,.6,1.33,1.52,1.15l5.24-1.15c.83-.18,1.24-.69,1.2-1.52-.28-3.31-2.48-9.48-11.96-9.48-10.31,0-11.13,8.14-11.09,9.52,0,10.58,13.85,9.71,14.72,13.62,.28,1.24-1.38,2.58-3.63,2.58s-3.86-1.29-4.05-3.5c-.09-.97-.6-1.38-1.52-1.2l-5.2,1.15c-.83,.18-1.24,.69-1.2,1.52,.23,3.59,2.3,9.94,11.96,9.94,10.9,0,12.47-8.14,12.47-9.52,0-10.58-14.54-10.49-15.18-14.08Z"/><path class="d" d="M193.72,1.62h-19.32c-.88,0-1.38,.46-1.38,1.38v29.44c0,.88,.51,1.38,1.38,1.38h19.32c.92,0,1.38-.46,1.38-1.38v-5.15c0-.92-.46-1.38-1.38-1.38h-11.13c-.87,0-1.38-.51-1.38-1.38v-1.47c0-.92,.51-1.38,1.38-1.38h7.13c.92,0,1.38-.51,1.38-1.38v-5.15c0-.92-.46-1.38-1.38-1.38h-7.13c-.87,0-1.38-.51-1.38-1.38v-1.47c0-.92,.51-1.38,1.38-1.38h11.13c.92,0,1.38-.51,1.38-1.38V3c0-.92-.46-1.38-1.38-1.38Z"/><path class="d" d="M220.23,1.62h-5.15c-.87,0-1.38,.46-1.38,1.38v14.86c0,.46-.37,.55-.55,.14l-6.26-15.32c-.32-.74-.83-1.06-1.61-1.06h-6.76c-.87,0-1.38,.46-1.38,1.38v29.44c0,.88,.51,1.38,1.38,1.38h5.15c.92,0,1.38-.51,1.38-1.38v-14.86c0-.46,.37-.55,.55-.14l6.26,15.32c.32,.74,.83,1.06,1.61,1.06h6.76c.92,0,1.38-.51,1.38-1.38V3c0-.92-.46-1.38-1.38-1.38Z"/><path class="d" d="M248.54,1.62h-23.55c-.87,0-1.38,.46-1.38,1.38v5.15c0,.87,.51,1.38,1.38,1.38h6.44c.92,0,1.38,.46,1.38,1.38v21.53c0,.88,.51,1.38,1.38,1.38h5.15c.92,0,1.38-.51,1.38-1.38V10.91c0-.92,.51-1.38,1.38-1.38h6.44c.92,0,1.38-.51,1.38-1.38V3c0-.92-.46-1.38-1.38-1.38Z"/><path class="d" d="M259.67,10.91c-.18-1.06,.92-2.12,2.71-2.12,2.16,0,3.68,1.2,4,3.08,.14,.92,.6,1.33,1.52,1.15l5.24-1.15c.83-.18,1.24-.69,1.2-1.52-.28-3.31-2.48-9.48-11.96-9.48-10.3,0-11.13,8.14-11.09,9.52,0,10.58,13.85,9.71,14.72,13.62,.28,1.24-1.38,2.58-3.63,2.58s-3.86-1.29-4.05-3.5c-.09-.97-.6-1.38-1.52-1.2l-5.2,1.15c-.83,.18-1.24,.69-1.2,1.52,.23,3.59,2.3,9.94,11.96,9.94,10.9,0,12.47-8.14,12.47-9.52,0-10.58-14.54-10.49-15.18-14.08Z"/></g></g></g></svg>
